<?xml version="1.0" standalone="no"?>
<!DOCTYPE svg PUBLIC "-//W3C//DTD SVG 20010904//EN"
 "http://www.w3.org/TR/2001/REC-SVG-20010904/DTD/svg10.dtd">
<svg version="1.0" xmlns="http://www.w3.org/2000/svg"
 width="100.000000pt" height="100.000000pt" viewBox="0 0 100.000000 100.000000"
 preserveAspectRatio="xMidYMid meet">
<metadata>
Created by potrace 1.11, written by Peter Selinger 2001-2013
</metadata>
<g transform="translate(0.000000,100.000000) scale(0.100000,-0.100000)"
fill="#000000" stroke="none">
<path d="M0 500 l0 -500 500 0 500 0 0 500 0 500 -500 0 -500 0 0 -500z m558
429 c-37 -5 -92 -18 -123 -30 -74 -28 -166 -113 -208 -193 -30 -57 -32 -67
-32 -166 0 -99 2 -109 32 -166 36 -69 119 -151 185 -182 46 -21 147 -44 160
-35 5 2 8 46 8 98 0 87 -2 94 -21 100 -12 4 -50 34 -85 66 -53 49 -70 59 -99
59 -35 0 -35 -1 -35 -42 0 -51 7 -64 40 -77 20 -8 8 -10 -55 -10 -66 1 -75 2
-52 11 l28 10 -3 136 c-3 136 -3 136 -28 143 -46 12 4 21 94 18 106 -5 139
-25 144 -86 3 -34 -2 -44 -25 -64 l-28 -24 63 -60 64 -60 -4 35 c-2 25 -10 38
-28 47 -22 11 -18 13 45 13 66 0 68 -1 47 -16 -16 -11 -22 -25 -22 -55 0 -24
5 -39 12 -39 9 0 9 -3 0 -12 -8 -8 -12 -48 -12 -115 0 -111 -11 -149 -52 -177
-29 -20 -78 -21 -78 -2 0 10 13 16 38 18 32 3 37 7 40 29 3 25 1 26 -57 32
-173 15 -320 155 -353 335 -43 233 160 474 397 470 l70 -1 -67 -8z m229 -112
c138 -72 109 -270 -44 -306 -26 -6 -84 -10 -128 -7 -96 5 -96 5 -67 16 21 9
22 13 22 150 0 125 -2 141 -17 148 -31 12 34 21 123 18 48 -2 93 -10 111 -19z"/>
<path d="M345 638 c-3 -13 -5 -51 -3 -83 l3 -60 38 1 c52 2 81 31 80 80 -1 45
-27 73 -76 81 -32 5 -37 3 -42 -19z"/>
<path d="M628 814 c-5 -4 -8 -67 -8 -140 0 -153 4 -161 88 -151 69 8 104 49
110 127 5 71 -9 112 -49 141 -30 21 -128 37 -141 23z"/>
</g>
</svg>
